# File created by Blade
# Date/Time:  Tue Apr 07 21:36:51 2015
#---------------------------------------------------------
:version 1.10
:name HOM
:units
  mass 1.0
  length 1.000000
  angle deg
:documentation
     Acclaim Skeleton File
:root
   axis xyz
   order TX TY TZ RX RY RZ
   position 0.000000 0.000000 0.000000
   orientation 0 0 0
:bonedata
   begin
      id 1
      name Spine_dum
      direction 0.000000 1.000000 0.000000
      length 4.885285
      axis 0.0 0.0 0.0 xyz
   end
   begin
      id 2
      name LeftUpLeg_dum
      direction 1.000000 0.000000 0.000000
      length 2.672193
      axis 0.0 0.0 0.0 xyz
   end
   begin
      id 3
      name RightUpLeg_dum
      direction -1.000000 0.000000 0.000000
      length 2.672193
      axis 0.0 0.0 0.0 xyz
   end
   begin
      id 4
      name Spine
      direction 0.000000 1.000000 0.000000
      length 0.000000
      axis 0.0 0.0 0.0 xyz
      dof rx ry rz
   end
   begin
      id 5
      name Spine_dum1
      direction 0.000000 1.000000 0.000000
      length 16.494159
      axis 0.0 0.0 0.0 xyz
   end
   begin
      id 6
      name Spine_dum2
      direction 0.000000 1.000000 0.000000
      length 10.663448
      axis 0.0 0.0 0.0 xyz
   end
   begin
      id 7
      name Spine_dum3
      direction 0.000000 1.000000 0.000000
      length 10.663448
      axis 0.0 0.0 0.0 xyz
   end
   begin
      id 8
      name Head
      direction 0.000000 1.000000 0.000000
      length 4.527550
      axis 0.0 0.0 0.0 xyz
      dof rx ry rz
   end
   begin
      id 9
      name LeftShoulder
      direction 1.000000 0.000000 0.000000
      length 7.531907
      axis 0.0 0.0 -90.0 xyz
      dof rx ry rz
   end
   begin
      id 10
      name LeftArm
      direction 1.000000 0.000000 0.000000
      length 10.229199
      axis 0.0 0.0 -90.0 xyz
      dof rx ry rz
   end
   begin
      id 11
      name LeftForeArm
      direction 1.000000 0.000000 0.000000
      length 8.673495
      axis 0.0 0.0 -90.0 xyz
      dof ry rz rx
   end
   begin
      id 12
      name LeftHand
      direction 0.000000 0.000000 0.000000
      length 0.000000
      axis 0.0 0.0 -90.0 xyz
      dof rx ry rz
   end
   begin
      id 13
      name LeftHand_dum1
      direction 0.000000 0.000000 0.000000
      length 0.000000
      axis 0.0 0.0 -90.0 xyz
   end
   begin
      id 14
      name LeftHand_dum2
      direction 1.000000 0.000000 0.000000
      length 3.937000
      axis 0.0 0.0 -90.0 xyz
   end
   begin
      id 15
      name LeftHandThumb1
      direction 0.000000 0.000000 1.000000
      length 3.937000
      axis 0.0 0.0 -90.0 xyz
      dof rx rz ry
   end
   begin
      id 16
      name RightShoulder
      direction -1.000000 0.000000 0.000000
      length 7.531907
      axis 0.0 0.0 90.0 xyz
      dof rx ry rz
   end
   begin
      id 17
      name RightArm
      direction -1.000000 0.000000 0.000000
      length 10.229199
      axis 0.0 0.0 90.0 xyz
      dof rx ry rz
   end
   begin
      id 18
      name RightForeArm
      direction -1.000000 0.000000 0.000000
      length 8.673495
      axis 0.0 0.0 90.0 xyz
      dof ry rz rx
   end
   begin
      id 19
      name RightHand
      direction 0.000000 0.000000 0.000000
      length 0.000000
      axis 0.0 0.0 90.0 xyz
      dof rx ry rz
   end
   begin
      id 20
      name RightHand_dum1
      direction 0.000000 0.000000 0.000000
      length 0.000000
      axis 0.0 0.0 90.0 xyz
   end
   begin
      id 21
      name RightHand_dum2
      direction -1.000000 0.000000 0.000000
      length 3.937000
      axis 0.0 0.0 90.0 xyz
   end
   begin
      id 22
      name RightHandThumb1
      direction 0.000000 0.000000 1.000000
      length 3.937000
      axis 0.0 0.0 90.0 xyz
      dof rx rz ry
   end
   begin
      id 23
      name LeftUpLeg
      direction 0.000000 -1.000000 0.000000
      length 16.263388
      axis 0.0 0.0 0.0 xyz
      dof rx ry rz
   end
   begin
      id 24
      name LeftLeg
      direction 0.000000 -1.000000 0.000000
      length 14.328163
      axis 0.0 0.0 0.0 xyz
      dof rx ry rz
   end
   begin
      id 25
      name LeftFoot
      direction 0.000000 -0.258819 0.965926
      length 5.031290
      axis 15.0 0.0 0.0 xyz
      dof rx ry rz
   end
   begin
      id 26
      name LeftToeBase
      direction 0.000000 0.000000 1.000000
      length 2.952750
      axis 0.0 0.0 0.0 xyz
      dof rx ry rz
   end
   begin
      id 27
      name RightUpLeg
      direction 0.000000 -1.000000 0.000000
      length 16.263388
      axis 0.0 0.0 0.0 xyz
      dof rx ry rz
   end
   begin
      id 28
      name RightLeg
      direction 0.000000 -1.000000 0.000000
      length 14.328163
      axis 0.0 0.0 0.0 xyz
      dof rx ry rz
   end
   begin
      id 29
      name RightFoot
      direction 0.000000 -0.258819 0.965926
      length 5.031290
      axis 15.0 0.0 0.0 xyz
      dof rx ry rz
   end
   begin
      id 30
      name RightToeBase
      direction 0.000000 0.000000 1.000000
      length 2.952750
      axis 0.0 0.0 0.0 xyz
      dof rx ry rz
   end
:hierarchy
   begin
      root Spine_dum LeftUpLeg_dum RightUpLeg_dum
      Spine_dum Spine
      LeftUpLeg_dum LeftUpLeg
      RightUpLeg_dum RightUpLeg
      Spine Spine_dum1 Spine_dum2 Spine_dum3
      Spine_dum1 Head
      Spine_dum2 LeftShoulder
      Spine_dum3 RightShoulder
      LeftShoulder LeftArm
      LeftArm LeftForeArm
      LeftForeArm LeftHand
      LeftHand LeftHand_dum1 LeftHand_dum2
      LeftHand_dum1 LeftHandThumb1
      RightShoulder RightArm
      RightArm RightForeArm
      RightForeArm RightHand
      RightHand RightHand_dum1 RightHand_dum2
      RightHand_dum1 RightHandThumb1
      LeftUpLeg LeftLeg
      LeftLeg LeftFoot
      LeftFoot LeftToeBase
      RightUpLeg RightLeg
      RightLeg RightFoot
      RightFoot RightToeBase
   end

# File created by Blade
# Date/Time:  Tue Apr 07 21:36:59 2015
# Frame Rate: 120.000 fps
#------------------------------------------------------
:FULLY-SPECIFIED
:DEGREES
187
root 7.185633 32.690765 13.753268 129.079626 -86.182243 -115.380093
Spine 1.435920 -6.176869 3.382171
Head 27.379010 -2.460837 -2.021255
LeftShoulder -14.348636 44.286224 8.742840
LeftArm 60.903972 -1.318896 -81.080034
LeftForeArm -9.479617 -0.000000 17.017439
LeftHand 7.419538 0.000000 -6.125718
LeftHandThumb1 -26.253704 0.000000 33.147579
RightShoulder -1.982706 -4.993035 -16.488820
RightArm 20.672116 -7.399088 82.981781
RightForeArm -0.435720 0.000000 20.433193
RightHand 6.177524 -0.000000 2.997532
RightHandThumb1 -24.326973 -0.000000 -32.862282
LeftUpLeg -10.057885 0.617298 1.790436
LeftLeg 10.319827 -0.000000 -0.000000
LeftFoot -17.373969 16.361797 -19.996361
LeftToeBase -11.076048 -0.000000 0.000000
RightUpLeg -29.419971 6.255455 -2.267410
RightLeg -1.671115 -0.000000 0.000000
RightFoot 18.096069 -12.395095 10.528696
RightToeBase -9.914262 -0.000000 0.000000
188
root 7.296142 32.725856 13.775386 130.686589 -85.950532 -117.019738
Spine 1.461969 -6.122307 3.475824
Head 27.518394 -2.347334 -2.237988
LeftShoulder -14.139549 44.017236 8.848174
LeftArm 60.967707 -0.894671 -80.961760
LeftForeArm -9.799879 -0.000000 16.549849
LeftHand 7.222916 -0.000000 -6.636516
LeftHandThumb1 -26.253704 0.000000 33.147579
RightShoulder -1.908537 -5.063943 -16.646343
RightArm 20.649139 -7.810459 83.359974
RightForeArm -0.288557 -0.000000 20.592581
RightHand 6.182303 0.000000 2.727802
RightHandThumb1 -24.326973 -0.000000 -32.862282
LeftUpLeg -10.073138 0.836703 1.855695
LeftLeg 10.000420 -0.000000 -0.000000
LeftFoot -16.991461 16.526004 -19.782989
LeftToeBase -11.055189 -0.000000 0.000000
RightUpLeg -29.308298 6.088910 -1.851595
RightLeg -1.328866 -0.000000 0.000000
RightFoot 17.246839 -13.041383 10.090676
RightToeBase -9.398127 -0.000000 0.000000
189
root 7.399078 32.759331 13.796374 132.347362 -85.721504 -118.712300
Spine 1.471728 -6.082814 3.549420
Head 27.630826 -2.213486 -2.447452
LeftShoulder -14.010087 43.794272 8.912080
LeftArm 61.044041 -0.435085 -80.876197
LeftForeArm -10.158005 -0.000000 16.108941
LeftHand 7.071840 0.000000 -6.763709
LeftHandThumb1 -26.253704 0.000000 33.147579
RightShoulder -1.801724 -5.080214 -16.794014
RightArm 20.567552 -8.173279 83.761372
RightForeArm -0.219034 -0.000000 20.708285
RightHand 6.315704 0.000000 2.858434
RightHandThumb1 -24.326973 -0.000000 -32.862282
LeftUpLeg -10.061976 1.067911 1.901202
LeftLeg 9.650288 -0.000000 -0.000000
LeftFoot -16.601760 16.738038 -19.550884
LeftToeBase -10.975785 -0.000000 0.000000
RightUpLeg -29.160722 6.067752 -1.535335
RightLeg -1.027905 -0.000000 0.000000
RightFoot 16.499544 -13.717147 9.811323
RightToeBase -8.994597 -0.000000 0.000000
190
root 7.498841 32.793453 13.813534 133.385634 -85.433256 -119.762268
Spine 1.458742 -6.001917 3.706732
Head 27.723544 -2.104359 -2.658754
LeftShoulder -13.850842 43.540351 8.990096
LeftArm 61.022215 0.004197 -80.910384
LeftForeArm -10.188653 -0.000000 15.819119
LeftHand 6.901812 -0.000000 -7.324278
LeftHandThumb1 -26.253704 0.000000 33.147579
RightShoulder -1.729453 -5.112694 -16.924880
RightArm 20.522182 -8.683682 84.038770
RightForeArm 0.055382 -0.000000 20.784442
RightHand 6.354179 -0.000000 2.741049
RightHandThumb1 -24.326973 -0.000000 -32.862282
LeftUpLeg -10.126878 1.434962 2.008840
LeftLeg 9.437992 -0.000000 -0.000000
LeftFoot -16.237666 16.799983 -19.310917
LeftToeBase -10.925917 -0.000000 0.000000
RightUpLeg -29.068304 6.031877 -1.149224
RightLeg -0.601355 -0.000000 0.000000
RightFoot 15.813619 -14.182815 9.579196
RightToeBase -8.596281 -0.000000 0.000000
191
root 7.600152 32.826591 13.824886 133.417341 -85.172546 -119.786080
Spine 1.428711 -5.991883 3.881796
Head 27.785368 -1.985208 -2.798573
LeftShoulder -13.709936 43.304130 9.082633
LeftArm 61.051802 0.484264 -80.911245
LeftForeArm -10.426750 -0.000000 15.436339
LeftHand 6.806029 -0.000000 -7.733923
LeftHandThumb1 -26.253704 0.000000 33.147579
RightShoulder -1.654498 -5.113681 -17.032045
RightArm 20.478699 -8.856186 84.479823
RightForeArm 0.027151 -0.000000 20.739880
RightHand 6.344047 -0.000000 2.996572
RightHandThumb1 -24.326973 -0.000000 -32.862282
LeftUpLeg -10.220475 1.717879 2.163514
LeftLeg 9.232372 -0.000000 -0.000000
LeftFoot -15.885216 16.843310 -19.106920
LeftToeBase -10.878152 -0.000000 0.000000
RightUpLeg -28.972130 5.914340 -0.721908
RightLeg -0.220707 -0.000000 0.000000
RightFoot 15.238987 -14.650886 9.651302
RightToeBase -8.292453 -0.000000 0.000000
192
root 7.695454 32.855858 13.832581 133.223312 -84.969899 -119.595237
Spine 1.406899 -6.021017 4.006455
Head 27.789562 -1.908546 -2.908900
LeftShoulder -13.532032 43.014409 9.238020
LeftArm 60.957178 0.927394 -81.043226
LeftForeArm -10.571557 -0.000000 15.127600
LeftHand 6.820147 -0.000000 -8.154972
LeftHandThumb1 -26.253704 0.000000 33.147579
RightShoulder -1.584142 -5.120550 -17.113420
RightArm 20.447506 -9.156525 84.830451
RightForeArm 0.177492 -0.000000 20.672179
RightHand 6.390799 0.000000 3.101560
RightHandThumb1 -24.326973 -0.000000 -32.862282
LeftUpLeg -10.288365 1.886034 2.306594
LeftLeg 8.998801 -0.000000 -0.000000
LeftFoot -15.563839 16.952954 -18.981697
LeftToeBase -10.904702 -0.000000 0.000000
RightUpLeg -28.790158 5.973971 -0.461131
RightLeg 0.046307 -0.000000 -0.000000
RightFoot 14.752038 -15.059116 9.691869
RightToeBase -8.712910 -0.000000 0.000000
193
root 7.788919 32.883174 13.839443 132.949668 -84.771529 -119.301017
Spine 1.350615 -6.066339 4.135796
Head 27.789251 -1.809889 -2.981484
LeftShoulder -13.369400 42.796040 9.381324
LeftArm 60.859260 1.376784 -81.182483
LeftForeArm -10.754634 -0.000000 14.934181
LeftHand 6.581745 -0.000000 -8.674552
LeftHandThumb1 -26.253704 0.000000 33.147579
RightShoulder -1.505306 -5.099141 -17.177651
RightArm 20.378842 -9.549907 85.103293
RightForeArm 0.367530 -0.000000 20.662078
RightHand 6.468703 -0.000000 3.121314
RightHandThumb1 -24.326973 -0.000000 -32.862282
LeftUpLeg -10.380500 2.083461 2.450324
LeftLeg 8.804856 -0.000000 -0.000000
LeftFoot -15.328325 16.924580 -18.909013
LeftToeBase -10.631980 -0.000000 0.000000
RightUpLeg -28.684638 6.084803 -0.222386
RightLeg 0.454816 -0.000000 -0.000000
RightFoot 14.298431 -15.256287 9.585551
RightToeBase -7.848592 -0.000000 0.000000
